<?xml-stylesheet type="text/css" href="../../../pages/zoos-map/style.css"?>
<svg class="animals__map-marker" width="69" height="89" viewBox="0 0 69 89" fill="none" xmlns="http://www.w3.org/2000/svg">
<path class="animals__marker-shape" d="M68 34.6111C68 39.1333 65.9439 44.7404 62.7293 50.6988C59.5304 56.628 55.2531 62.7819 50.9575 68.3639C46.6647 73.9422 42.3695 78.9289 39.1462 82.5221C37.5351 84.3181 36.193 85.7647 35.2544 86.7615C34.9625 87.0714 34.7097 87.3379 34.5 87.5577C34.2903 87.3379 34.0375 87.0714 33.7456 86.7615C32.8071 85.7647 31.4649 84.3181 29.8538 82.5221C26.6305 78.9289 22.3353 73.9422 18.0425 68.3639C13.7469 62.7819 9.46961 56.628 6.27071 50.6988C3.05609 44.7404 1 39.1333 1 34.6111C1 16.0452 16.0015 1 34.5 1C52.9985 1 68 16.0452 68 34.6111Z" fill="#FCFCFC" stroke-width="2px" stroke="#609fff"/>
<path d="M54.8514 39.843C54.6874 36.9424 53.9274 31.1901 52.9826 28.3782C50.9451 22.3099 44.8685 12.04 35.0151 12.04C25.1633 12.04 19.0855 22.3099 17.0477 28.3782C16.1022 31.1927 15.3425 36.9438 15.1792 39.8433C14.9311 44.2493 16.5614 48.5485 19.7703 51.9491C23.3751 55.7693 28.4363 57.9603 33.6563 57.9603H36.3748C41.594 57.9603 46.6551 55.7693 50.26 51.9491C53.4688 48.5481 55.0996 44.2493 54.8514 39.843ZM48.6448 50.42C45.5044 53.7476 40.9177 55.7341 36.3744 55.7341H33.6559C29.1125 55.7341 24.5251 53.7476 21.3851 50.4196C18.6003 47.4686 17.1844 43.757 17.3977 39.9683C17.5581 37.1316 18.3037 31.6193 19.154 29.0871C20.8759 23.9607 26.4066 14.2655 35.0155 14.2655C43.6259 14.2655 49.1555 23.9607 50.8766 29.0875C51.7266 31.6171 52.4729 37.1301 52.6333 39.9683C52.8463 43.757 51.43 47.4689 48.6448 50.42Z" fill="#080029"/>
<path d="M40.9614 25.6831C38.7714 25.6831 36.6958 26.421 35.0151 27.7802C33.3343 26.421 31.2588 25.6831 29.0684 25.6831C23.834 25.6831 19.5754 29.9485 19.5754 35.1914C19.5754 38.677 21.4388 41.8076 24.4143 43.4751C24.1062 44.1744 23.9469 44.907 23.9469 45.6415C23.9469 49.8223 28.8084 53.0969 35.0151 53.0969C41.2217 53.0969 46.0829 49.8223 46.0829 45.6415C46.0829 44.907 45.9232 44.174 45.6154 43.4751C48.591 41.8076 50.454 38.6766 50.454 35.1914C50.4543 29.9485 46.1958 25.6831 40.9614 25.6831ZM43.6473 41.9538L42.3195 42.4831L43.1591 43.6417C43.6247 44.2838 43.861 44.9567 43.861 45.6415C43.861 48.4765 39.8099 50.8711 35.0154 50.8711C30.2206 50.8711 26.1695 48.4765 26.1695 45.6415C26.1695 44.9571 26.4058 44.2845 26.8717 43.6417L27.7114 42.4831L26.384 41.9538C23.5984 40.8431 21.7988 38.1884 21.7988 35.1914C21.7988 31.176 25.0603 27.9089 29.0695 27.9089C31.0199 27.9089 32.8517 28.6735 34.2277 30.0613L35.0162 30.857L35.8047 30.0613C37.1806 28.6735 39.0121 27.9089 40.9625 27.9089C44.9714 27.9089 48.2332 31.176 48.2332 35.1914C48.2321 38.1884 46.4325 40.8431 43.6473 41.9538Z" fill="#080029"/>
<path d="M28.3482 36.2892C29.4476 36.2892 30.3389 35.3965 30.3389 34.2952C30.3389 33.194 29.4476 32.3013 28.3482 32.3013C27.2487 32.3013 26.3574 33.194 26.3574 34.2952C26.3574 35.3965 27.2487 36.2892 28.3482 36.2892Z" fill="#080029"/>
<path d="M41.6821 36.2892C42.7816 36.2892 43.6729 35.3965 43.6729 34.2952C43.6729 33.194 42.7816 32.3013 41.6821 32.3013C40.5827 32.3013 39.6914 33.194 39.6914 34.2952C39.6914 35.3965 40.5827 36.2892 41.6821 36.2892Z" fill="#080029"/>
<path d="M34.1858 40.2876H31.9636V43.2884H34.1858V40.2876Z" fill="#080029"/>
<path d="M38.0667 40.2876H35.8445V43.2884H38.0667V40.2876Z" fill="#080029"/>
</svg>
