<?xml-stylesheet type="text/css" href="../../../pages/zoos-map/style.css"?>
<svg class="animals__map-marker" width="69" height="89" viewBox="0 0 69 89" fill="none" xmlns="http://www.w3.org/2000/svg">
<path class="animals__marker-shape" d="M68 34.6111C68 39.1333 65.9439 44.7404 62.7293 50.6988C59.5304 56.628 55.2531 62.7819 50.9575 68.3639C46.6647 73.9422 42.3695 78.9289 39.1462 82.5221C37.5351 84.3181 36.193 85.7647 35.2544 86.7615C34.9625 87.0714 34.7097 87.3379 34.5 87.5577C34.2903 87.3379 34.0375 87.0714 33.7456 86.7615C32.8071 85.7647 31.4649 84.3181 29.8538 82.5221C26.6305 78.9289 22.3353 73.9422 18.0425 68.3639C13.7469 62.7819 9.46961 56.628 6.27071 50.6988C3.05609 44.7404 1 39.1333 1 34.6111C1 16.0452 16.0015 1 34.5 1C52.9985 1 68 16.0452 68 34.6111Z" fill="#FCFCFC"/>
<path d="M55.0253 19.3761C53.9181 18.239 52.4518 17.6128 50.8963 17.6128C49.311 17.6128 47.8251 18.2598 46.7117 19.4345L45.4533 20.7623C42.2273 18.5543 38.6325 17.3926 35.0002 17.3926C31.3675 17.3926 27.7727 18.5543 24.547 20.7623L23.2883 19.4345C22.1749 18.2598 20.6886 17.6132 19.1037 17.6132C17.5486 17.6132 16.0823 18.2394 14.9751 19.3769C12.6684 21.7467 12.6437 25.6288 14.9197 28.0308L16.7767 29.9901C15.6159 32.5122 15.0056 35.1197 15.0056 37.5774C15.0056 46.2863 22.6672 51.6964 35.0005 51.6964C47.3336 51.6964 54.9951 46.2863 54.9951 37.5774C54.9951 35.1201 54.3845 32.513 53.2233 29.9901L55.081 28.0308C57.3567 25.6288 57.3319 21.7467 55.0253 19.3761ZM53.5248 26.4331L51.117 28.9735C50.7824 29.3268 50.7063 29.8646 50.9287 30.3032C52.1594 32.7291 52.8097 35.2444 52.8097 37.577C52.8097 46.3102 43.6095 49.4218 34.9998 49.4218C26.3898 49.4218 17.1895 46.3102 17.1895 37.577C17.1895 35.244 17.8398 32.7283 19.0702 30.3032C19.2926 29.8646 19.2162 29.3264 18.8819 28.9735L16.4744 26.4331C15.0442 24.9238 15.0599 22.4843 16.509 20.9954C17.2048 20.2809 18.126 19.8871 19.1033 19.8871C20.0995 19.8871 21.0334 20.2938 21.7332 21.0318L23.635 23.0381C24.0133 23.4372 24.6144 23.4891 25.0513 23.1616C28.096 20.8752 31.5361 19.6668 35.0002 19.6668C38.4636 19.6668 41.9036 20.8752 44.9487 23.1616C45.3852 23.4895 45.9871 23.4372 46.3654 23.0381L48.2671 21.0318C48.9666 20.2938 49.9005 19.8871 50.8967 19.8871C51.8743 19.8871 52.7955 20.2809 53.491 20.995C54.9401 22.4847 54.9554 24.9238 53.5248 26.4331Z" fill="#080029"/>
<path d="M21.1347 32.287C19.0371 34.4707 18.6337 37.5906 20.2336 39.2557C21.8331 40.9216 24.83 40.5013 26.9277 38.3176C29.0249 36.1343 29.4283 33.0144 27.8288 31.3489C26.2289 29.6837 23.232 30.1037 21.1347 32.287ZM23.7126 37.4344C22.6316 37.4344 21.7555 36.5224 21.7555 35.3971C21.7555 34.2717 22.6316 33.3597 23.7126 33.3597C24.7936 33.3597 25.6697 34.2717 25.6697 35.3971C25.6697 36.5224 24.7936 37.4344 23.7126 37.4344Z" fill="#080029"/>
<path d="M42.1711 31.3489C40.5709 33.0144 40.975 36.1343 43.0723 38.3176C45.1695 40.5013 48.1668 40.9213 49.7664 39.2557C51.3666 37.5906 50.9625 34.4707 48.8652 32.287C46.768 30.1037 43.7703 29.6837 42.1711 31.3489ZM46.2873 37.4344C45.2063 37.4344 44.3303 36.5225 44.3303 35.3971C44.3303 34.2717 45.2063 33.3597 46.2873 33.3597C47.3684 33.3597 48.2444 34.2717 48.2444 35.3971C48.2444 36.5225 47.368 37.4344 46.2873 37.4344Z" fill="#080029"/>
<path d="M37.0469 39.9568C37.5417 39.8484 37.9131 39.3924 37.9131 38.8447C37.9131 38.2166 37.4241 37.7075 36.8208 37.7075H33.1797C32.5764 37.7075 32.0874 38.2166 32.0874 38.8447C32.0874 39.392 32.4588 39.848 32.9532 39.9568L31.1811 41.8016C30.7544 42.2454 30.7544 42.9656 31.1811 43.4095C31.3945 43.6316 31.6741 43.7427 31.9534 43.7427C32.2327 43.7427 32.5123 43.6316 32.7257 43.4095L34.9999 41.042L37.2741 43.4095C37.4875 43.6316 37.7671 43.7427 38.0464 43.7427C38.3256 43.7427 38.6053 43.6316 38.8186 43.4095C39.2454 42.9656 39.2454 42.2454 38.8186 41.8016L37.0469 39.9568Z" fill="#080029"/>
</svg>
