<svg width="26" height="33" viewBox="0 0 26 33" fill="none" xmlns="http://www.w3.org/2000/svg">
<path d="M25.796 28.7364L23.8996 11.3005C23.8698 5.07901 18.9977 0.0273743 13.0132 0.0273743C7.02877 0.0273743 2.15663 5.07934 2.12714 11.3005L0.230406 28.7364C0.198699 29.0281 0.29287 29.3195 0.48787 29.5317C0.68287 29.7442 0.959041 29.8574 1.23933 29.8356C1.25899 29.8343 3.19853 29.7003 4.94529 29.7003C6.17648 29.7003 6.78843 29.7663 7.08521 29.8221C8.57102 30.0999 11.4713 32.0588 12.4634 32.7904C12.6283 32.9115 12.8208 32.9726 13.0132 32.9726C13.206 32.9726 13.3994 32.9112 13.5643 32.7891C14.5253 32.078 17.3387 30.1676 18.795 29.8746C19.1302 29.8072 19.8392 29.727 21.3151 29.727C23.0131 29.727 24.7766 29.835 24.7941 29.8363C25.0728 29.8498 25.3474 29.7409 25.5408 29.529C25.7342 29.3172 25.8277 29.0268 25.796 28.7364ZM21.3151 27.747C19.9907 27.747 19.0487 27.8071 18.4339 27.9309C16.728 28.2741 14.1572 29.9762 13.0119 30.7804C11.8394 29.96 9.17282 28.2011 7.42131 27.8731C6.87119 27.7701 6.06107 27.7203 4.94465 27.7203C3.98202 27.7203 2.98355 27.7579 2.24667 27.7946L4.02292 11.4691C4.02704 11.4322 4.02894 11.3949 4.02894 11.3579C4.02894 6.202 8.05894 2.0077 13.0129 2.0077C17.9665 2.0077 21.9968 6.202 21.9968 11.3579C21.9968 11.3952 21.9991 11.4325 22.0029 11.4691L23.7798 27.8035C23.1063 27.7751 22.2099 27.747 21.3151 27.747Z" fill="#0F0049"/>
<path d="M7.30607 12.5802C8.24732 12.5802 9.01034 11.7861 9.01034 10.8065C9.01034 9.82685 8.24732 9.03271 7.30607 9.03271C6.36483 9.03271 5.60181 9.82685 5.60181 10.8065C5.60181 11.7861 6.36483 12.5802 7.30607 12.5802Z" fill="#0F0049"/>
<path d="M18.7206 12.5802C19.6619 12.5802 20.4249 11.7861 20.4249 10.8065C20.4249 9.82685 19.6619 9.03271 18.7206 9.03271C17.7794 9.03271 17.0164 9.82685 17.0164 10.8065C17.0164 11.7861 17.7794 12.5802 18.7206 12.5802Z" fill="#0F0049"/>
<path d="M13.0134 24.8038L17.2584 13.3631H8.76782L13.0134 24.8038ZM13.0134 19.308L11.5422 15.3431H14.4846L13.0134 19.308Z" fill="#0F0049"/>
</svg>
