<svg width="28" height="35" viewBox="0 0 28 35" fill="none" xmlns="http://www.w3.org/2000/svg">
<path d="M27.946 12.1462C27.946 9.3215 26.2416 6.27402 23.2693 3.78503C20.4478 1.42219 16.9827 0.0116501 13.9999 0.0116501C8.03934 0.0116501 0.0537109 6.01118 0.0537109 12.1465C0.0537109 14.0809 2.63208 17.7977 3.17997 18.5651C4.43933 20.489 6.13439 23.8704 5.79271 25.0545C4.82844 28.3928 4.8256 30.9408 5.7839 32.6271C6.56639 34.0046 7.69538 34.2695 7.82149 34.2951C7.8746 34.3059 7.928 34.3114 7.98196 34.3114H20.0175C20.0669 34.3114 20.1163 34.3068 20.1649 34.2978C20.2913 34.2743 21.4231 34.0283 22.2116 32.6654C23.1818 30.9887 23.1801 28.428 22.207 25.0548C21.8622 23.8595 23.5243 20.5462 24.8198 18.5645C25.3682 17.7962 27.946 14.0803 27.946 12.1462ZM23.4306 17.5189C22.8299 18.4344 19.8695 23.1276 20.5776 25.5826C21.5873 29.0823 21.2502 30.8228 20.7895 31.6667C20.4682 32.255 20.0556 32.4507 19.9067 32.5046H8.09557C7.96095 32.4522 7.56303 32.2571 7.2435 31.6953C6.76378 30.8505 6.40506 29.1046 7.42187 25.5829C8.13079 23.1279 5.16984 18.4344 4.56913 17.5189C4.5626 17.5086 4.5555 17.4987 4.54868 17.4888C3.38958 15.8678 1.75757 13.1385 1.75757 12.1462C1.75757 7.15948 8.94253 1.8178 13.9996 1.8178C19.6059 1.8178 26.2416 7.4163 26.2416 12.1462C26.2416 13.137 24.6096 15.8666 23.4505 17.4888C23.444 17.4984 23.4369 17.5086 23.4306 17.5189Z" fill="#0F0049"/>
<path d="M12.8763 28.1566H11.1721V30.5998H12.8763V28.1566Z" fill="#0F0049"/>
<path d="M16.8277 28.1566H15.1235V30.5998H16.8277V28.1566Z" fill="#0F0049"/>
<path d="M15.9755 18.9634H12.0242V20.7699H15.9755V18.9634Z" fill="#0F0049"/>
<path d="M15.9755 22.6286H12.0242V24.435H15.9755V22.6286Z" fill="#0F0049"/>
<path d="M5.254 12.7401L8.6272 16.3158L9.8322 15.0385L6.459 11.4628L5.254 12.7401Z" fill="#0F0049"/>
<path d="M18.1689 15.038L19.3738 16.3155L22.7475 12.7403L21.5426 11.4628L18.1689 15.038Z" fill="#0F0049"/>
<path d="M17.8698 8.88203H10.1301V10.6885H17.8698V8.88203Z" fill="#0F0049"/>
<path d="M17.8698 5.26915H10.1301V7.0756H17.8698V5.26915Z" fill="#0F0049"/>
</svg>
