<svg width="279" height="123" viewBox="0 0 279 123" fill="none" xmlns="http://www.w3.org/2000/svg">
<path d="M52.9246 99H5.40456L0.796563 91.512C9.05256 75.864 22.6846 45.672 41.6926 0.935992H46.0126L62.2846 9.288L25.5646 79.272L19.2286 88.632L53.0686 86.616L54.5086 59.688L70.2046 58.392V85.464L88.6366 84.456V99H70.2046V122.04H52.9246V99ZM137.616 100.44C125.328 100.44 115.92 96.36 109.392 88.2C102.96 79.944 99.7437 68.76 99.7437 54.648C99.7437 44.664 101.616 36.216 105.36 29.304C109.104 22.296 114.048 17.064 120.192 13.608C126.432 10.056 133.344 8.27999 140.928 8.27999C153.312 8.27999 162.624 12.216 168.864 20.088C175.104 27.864 178.224 38.904 178.224 53.208C178.224 63.096 176.4 71.64 172.752 78.84C169.2 85.944 164.352 91.32 158.208 94.968C152.064 98.616 145.2 100.44 137.616 100.44ZM139.056 91.8C145.104 91.8 149.52 88.728 152.304 82.584C155.184 76.344 156.624 67.08 156.624 54.792C156.624 41.736 155.28 32.184 152.592 26.136C150 19.992 145.536 16.92 139.2 16.92C127.296 16.92 121.344 28.968 121.344 53.064C121.344 65.928 122.736 75.624 125.52 82.152C128.4 88.584 132.912 91.8 139.056 91.8ZM242.768 99H195.248L190.64 91.512C198.896 75.864 212.528 45.672 231.536 0.935992H235.856L252.128 9.288L215.408 79.272L209.072 88.632L242.912 86.616L244.352 59.688L260.048 58.392V85.464L278.48 84.456V99H260.048V122.04H242.768V99Z" fill="#D9E8FF"/>
</svg>
