<svg width="9" height="9" viewBox="0 0 9 9" fill="none" xmlns="http://www.w3.org/2000/svg">
<path d="M0.8 9C0.714667 9 0.634667 8.968 0.56 8.904C0.496 8.84 0.464 8.76 0.464 8.664C0.464 8.568 0.501333 8.472 0.576 8.376L3.36 4.744L0.752 1.304C0.677333 1.21867 0.64 1.12267 0.64 1.016C0.64 0.92 0.672 0.84 0.736 0.776C0.8 0.712 0.88 0.679999 0.976 0.679999H1.792C1.952 0.679999 2.09067 0.765333 2.208 0.936L4.336 3.704L6.464 0.952C6.528 0.866666 6.58667 0.802666 6.64 0.759999C6.704 0.706666 6.784 0.679999 6.88 0.679999H7.664C7.76 0.679999 7.84 0.712 7.904 0.776C7.968 0.84 8 0.92 8 1.016C8 1.12267 7.96267 1.21867 7.888 1.304L5.248 4.776L8.032 8.376C8.10667 8.472 8.144 8.568 8.144 8.664C8.144 8.76 8.112 8.84 8.048 8.904C7.984 8.968 7.904 9 7.808 9H6.96C6.8 9 6.66133 8.92 6.544 8.76L4.304 5.832L2.032 8.76C1.968 8.83467 1.904 8.89333 1.84 8.936C1.78667 8.97867 1.712 9 1.616 9H0.8Z" fill="#FCFCFC"/>
</svg>
