<?xml-stylesheet type="text/css" href="../../../pages/landing/style.css"?>
<svg class="zoo-geography__map-marker" width="69" height="89" viewBox="0 0 69 89" fill="none" xmlns="http://www.w3.org/2000/svg">
<path class="zoo-geography__marker-shape" d="M68 34.6111C68 39.1333 65.9439 44.7404 62.7293 50.6988C59.5304 56.628 55.2531 62.7819 50.9575 68.3639C46.6647 73.9422 42.3695 78.9289 39.1462 82.5221C37.5351 84.3181 36.193 85.7647 35.2544 86.7615C34.9625 87.0714 34.7097 87.3379 34.5 87.5577C34.2903 87.3379 34.0375 87.0714 33.7456 86.7615C32.8071 85.7647 31.4649 84.3181 29.8538 82.5221C26.6305 78.9289 22.3353 73.9422 18.0425 68.3639C13.7469 62.7819 9.46961 56.628 6.27071 50.6988C3.05609 44.7404 1 39.1333 1 34.6111C1 16.0452 16.0015 1 34.5 1C52.9985 1 68 16.0452 68 34.6111Z" fill="#FCFCFC" stroke="#609FFF" stroke-width="2px"/>
<g clip-path="url(#clip0)">
<path d="M53.7021 52.5647L50.9304 27.2034C50.8868 18.154 43.766 10.8062 35.0195 10.8062C26.273 10.8062 19.1522 18.1545 19.1091 27.2034L16.337 52.5647C16.2906 52.989 16.4282 53.4129 16.7132 53.7215C16.9982 54.0306 17.4019 54.1953 17.8115 54.1636C17.8403 54.1617 20.675 53.9668 23.2279 53.9668C25.0274 53.9668 25.9218 54.0628 26.3555 54.1439C28.5271 54.5481 32.7659 57.3974 34.216 58.4615C34.4569 58.6377 34.7382 58.7265 35.0195 58.7265C35.3013 58.7265 35.584 58.6372 35.8249 58.4596C37.2295 57.4252 41.3414 54.6465 43.4699 54.2202C43.9597 54.1223 44.9959 54.0057 47.1531 54.0057C49.6347 54.0057 52.2122 54.1626 52.2377 54.1646C52.645 54.1842 53.0463 54.0258 53.329 53.7177C53.6117 53.4095 53.7484 52.9871 53.7021 52.5647ZM47.1531 51.1257C45.2174 51.1257 43.8406 51.213 42.9421 51.393C40.4489 51.8922 36.6915 54.3681 35.0177 55.5378C33.304 54.3446 29.4066 51.7862 26.8467 51.309C26.0427 51.1593 24.8587 51.0868 23.227 51.0868C21.8201 51.0868 20.3608 51.1415 19.2838 51.1948L21.8799 27.4487C21.8859 27.395 21.8887 27.3407 21.8887 27.287C21.8887 19.7874 27.7787 13.6866 35.0191 13.6866C42.259 13.6866 48.1494 19.7874 48.1494 27.287C48.1494 27.3412 48.1527 27.3954 48.1582 27.4487L50.7552 51.2078C49.7709 51.1665 48.4609 51.1257 47.1531 51.1257Z" fill="#0F0049"/>
<path d="M26.678 29.0648C28.0536 29.0648 29.1688 27.9097 29.1688 26.4848C29.1688 25.0599 28.0536 23.9048 26.678 23.9048C25.3023 23.9048 24.1871 25.0599 24.1871 26.4848C24.1871 27.9097 25.3023 29.0648 26.678 29.0648Z" fill="#0F0049"/>
<path d="M43.361 29.0648C44.7366 29.0648 45.8518 27.9097 45.8518 26.4848C45.8518 25.0599 44.7366 23.9048 43.361 23.9048C41.9853 23.9048 40.8701 25.0599 40.8701 26.4848C40.8701 27.9097 41.9853 29.0648 43.361 29.0648Z" fill="#0F0049"/>
<path d="M35.0195 46.8442L41.2236 30.2031H28.8143L35.0195 46.8442ZM35.0195 38.8503L32.8692 33.0831H37.1697L35.0195 38.8503Z" fill="#0F0049"/>
</g>
<g clip-path="url(#clip1)">
<path d="M53.7021 52.5647L50.9304 27.2034C50.8868 18.154 43.766 10.8062 35.0195 10.8062C26.273 10.8062 19.1522 18.1545 19.1091 27.2034L16.337 52.5647C16.2906 52.989 16.4282 53.4129 16.7132 53.7215C16.9982 54.0306 17.4019 54.1953 17.8115 54.1636C17.8403 54.1617 20.675 53.9668 23.2279 53.9668C25.0274 53.9668 25.9218 54.0628 26.3555 54.1439C28.5271 54.5481 32.7659 57.3974 34.216 58.4615C34.4569 58.6377 34.7382 58.7265 35.0195 58.7265C35.3013 58.7265 35.584 58.6372 35.8249 58.4596C37.2295 57.4252 41.3414 54.6465 43.4699 54.2202C43.9597 54.1223 44.9959 54.0057 47.1531 54.0057C49.6347 54.0057 52.2122 54.1626 52.2377 54.1646C52.645 54.1842 53.0463 54.0258 53.329 53.7177C53.6117 53.4095 53.7484 52.9871 53.7021 52.5647ZM47.1531 51.1257C45.2174 51.1257 43.8406 51.213 42.9421 51.393C40.4489 51.8922 36.6915 54.3681 35.0177 55.5378C33.304 54.3446 29.4066 51.7862 26.8467 51.309C26.0427 51.1593 24.8587 51.0868 23.227 51.0868C21.8201 51.0868 20.3608 51.1415 19.2838 51.1948L21.8799 27.4487C21.8859 27.395 21.8887 27.3407 21.8887 27.287C21.8887 19.7874 27.7787 13.6866 35.0191 13.6866C42.259 13.6866 48.1494 19.7874 48.1494 27.287C48.1494 27.3412 48.1527 27.3954 48.1582 27.4487L50.7552 51.2078C49.7709 51.1665 48.4609 51.1257 47.1531 51.1257Z" fill="#0F0049"/>
<path d="M26.678 29.0648C28.0536 29.0648 29.1688 27.9097 29.1688 26.4848C29.1688 25.0599 28.0536 23.9048 26.678 23.9048C25.3023 23.9048 24.1871 25.0599 24.1871 26.4848C24.1871 27.9097 25.3023 29.0648 26.678 29.0648Z" fill="#0F0049"/>
<path d="M43.361 29.0648C44.7366 29.0648 45.8518 27.9097 45.8518 26.4848C45.8518 25.0599 44.7366 23.9048 43.361 23.9048C41.9853 23.9048 40.8701 25.0599 40.8701 26.4848C40.8701 27.9097 41.9853 29.0648 43.361 29.0648Z" fill="#0F0049"/>
<path d="M35.0195 46.8442L41.2236 30.2031H28.8143L35.0195 46.8442ZM35.0195 38.8503L32.8692 33.0831H37.1697L35.0195 38.8503Z" fill="#0F0049"/>
</g>
<defs>
<clipPath id="clip0">
<rect width="38" height="48" fill="white" transform="translate(16 10.7661)"/>
</clipPath>
<clipPath id="clip1">
<rect width="38" height="48" fill="white" transform="translate(16 10.7661)"/>
</clipPath>
</defs>
</svg>
