<?xml-stylesheet type="text/css" href="../../../pages/landing/style.css"?>
<svg class="zoo-geography__map-marker" width="69" height="89" viewBox="0 0 69 89" fill="none" xmlns="http://www.w3.org/2000/svg">
<path class="zoo-geography__marker-shape" d="M68 34.6111C68 39.1333 65.9439 44.7404 62.7293 50.6988C59.5304 56.628 55.2531 62.7819 50.9575 68.3639C46.6647 73.9422 42.3695 78.9289 39.1462 82.5221C37.5351 84.3181 36.193 85.7647 35.2544 86.7615C34.9625 87.0714 34.7097 87.3379 34.5 87.5577C34.2903 87.3379 34.0375 87.0714 33.7456 86.7615C32.8071 85.7647 31.4649 84.3181 29.8538 82.5221C26.6305 78.9289 22.3353 73.9422 18.0425 68.3639C13.7469 62.7819 9.46961 56.628 6.27071 50.6988C3.05609 44.7404 1 39.1333 1 34.6111C1 16.0452 16.0015 1 34.5 1C52.9985 1 68 16.0452 68 34.6111Z" fill="#FCFCFC"/>
<path d="M54.9228 27.3106C54.9228 23.5174 52.4879 19.4251 48.2418 16.0827C44.2111 12.9098 39.2609 11.0156 34.9997 11.0156C26.4847 11.0156 15.0767 19.0721 15.0767 27.311C15.0767 29.9086 18.76 34.8997 19.5427 35.9303C21.3418 38.5138 23.7633 43.0545 23.2752 44.6446C21.8977 49.1275 21.8936 52.5491 23.2626 54.8136C24.3805 56.6632 25.9933 57.019 26.1735 57.0534C26.2494 57.0679 26.3256 57.0752 26.4027 57.0752H43.5964C43.667 57.0752 43.7376 57.0692 43.8069 57.057C43.9875 57.0255 45.6044 56.6952 46.7308 54.8649C48.1168 52.6133 48.1144 49.1748 46.7243 44.645C46.2317 43.0399 48.6061 38.5906 50.4568 35.9295C51.2403 34.8977 54.9228 29.9078 54.9228 27.3106ZM48.4722 34.5253C47.6141 35.7548 43.385 42.0571 44.3965 45.3537C45.8389 50.0533 45.3573 52.3906 44.6992 53.5238C44.2403 54.3138 43.6507 54.5766 43.4381 54.649H26.565C26.3727 54.5787 25.8043 54.3167 25.3478 53.5622C24.6625 52.4278 24.15 50.0832 25.6026 45.3541C26.6154 42.0575 22.3854 35.7548 21.5273 34.5253C21.5179 34.5116 21.5078 34.4982 21.498 34.4849C19.8422 32.3081 17.5107 28.6432 17.5107 27.3106C17.5107 20.6141 27.775 13.441 34.9993 13.441C43.0084 13.441 52.4879 20.959 52.4879 27.3106C52.4879 28.6411 50.1565 32.3065 48.5006 34.4849C48.4913 34.4978 48.4812 34.5116 48.4722 34.5253Z" fill="#080029"/>
<path d="M33.3946 48.8101H30.9601V52.091H33.3946V48.8101Z" fill="#080029"/>
<path d="M39.0395 48.8101H36.605V52.091H39.0395V48.8101Z" fill="#080029"/>
<path d="M37.8221 36.4653H32.1774V38.8911H37.8221V36.4653Z" fill="#080029"/>
<path d="M37.8221 41.3867H32.1774V43.8125H37.8221V41.3867Z" fill="#080029"/>
<path d="M22.5059 28.108L27.3247 32.9097L29.0461 31.1944L24.2273 26.3927L22.5059 28.108Z" fill="#080029"/>
<path d="M40.9556 31.1936L42.6768 32.9092L47.4963 28.1082L45.7751 26.3927L40.9556 31.1936Z" fill="#080029"/>
<path d="M40.5281 22.9272H29.4714V25.3531H40.5281V22.9272Z" fill="#080029"/>
<path d="M40.5281 18.0757H29.4714V20.5015H40.5281V18.0757Z" fill="#080029"/>
</svg>
